# xmcd
#
# Track frame offsets: 
#        150
#        13650
#        27273
#        42278
#        55232
#        68936
#        79939
#        90036
#        103446
#        115570
#        127764
#        142689
#        155036
#        170039
#        183249
#        194511
#        207261
#        220602
#        234950
#        247188
#        260302
#        273917
#        287570
#        302237
#        313948
#
# Disc length: 4359 seconds
#
# Revision: 1
# Processed by: cddbd v1.5.2PL0 Copyright (c) Steve Scherf et al.
# Submitted via: ExactAudioCopy v0.99pb5
#
DISCID=5e110519
DTITLE=Dinah Washington - Mad About The Boy
DYEAR=2003
DGENRE=Blues
TTITLE0=Mad About The Boy
TTITLE1=Stormy Weather
TTITLE2=Cold, Cold Heart
TTITLE3=Just One More Chance
TTITLE4=Habour Lights
TTITLE5=If I Loved You
TTITLE6=Wheel Of Fortune
TTITLE7=Mixed Emotions
TTITLE8=I'm Crying
TTITLE9=My Heart Cries For You
TTITLE10=I Apologize
TTITLE11=I'll Never Be Free
TTITLE12=Time Out For Tears
TTITLE13=Only A Moment Ago
TTITLE14=Why Don't You Think Things Over?
TTITLE15=Trouble In Mind
TTITLE16=Tell Me Why
TTITLE17=Out In The Cold Again
TTITLE18=Hey, Good Looking
TTITLE19=Love (Me) With Misery
TTITLE20=Please Send Me Someone To Love
TTITLE21=It Isn't Fair
TTITLE22=Don't Say You're Sorry Again
TTITLE23=It's Funny
TTITLE24=Am I Really Sorry?
EXTD=25 Original Recordings
EXTT0=
EXTT1=
EXTT2=
EXTT3=
EXTT4=
EXTT5=
EXTT6=
EXTT7=
EXTT8=
EXTT9=
EXTT10=
EXTT11=
EXTT12=
EXTT13=
EXTT14=
EXTT15=
EXTT16=
EXTT17=
EXTT18=
EXTT19=
EXTT20=
EXTT21=
EXTT22=
EXTT23=
EXTT24=
PLAYORDER=
